<?xml version="1.0" encoding="UTF-8"?>
<svg xmlns="http://www.w3.org/2000/svg" xmlns:xlink="http://www.w3.org/1999/xlink" width="100pt" height="100pt" viewBox="0 0 100 100" version="1.1">
<g id="surface1">
<path style=" stroke:none;fill-rule:nonzero;fill:rgb(0%,0%,0%);fill-opacity:1;" d="M 57.8125 28.125 C 56.589844 28.125 55.492188 28.601562 54.652344 29.367188 L 54.644531 29.355469 L 35.894531 46.542969 C 34.929688 47.433594 34.375 48.683594 34.375 50 C 34.375 51.316406 34.929688 52.566406 35.894531 53.457031 L 54.644531 70.644531 L 54.652344 70.632812 C 55.492188 71.398438 56.589844 71.875 57.8125 71.875 C 60.398438 71.875 62.5 69.773438 62.5 67.1875 C 62.5 65.820312 61.90625 64.601562 60.972656 63.742188 L 60.980469 63.730469 L 46 50 L 60.980469 36.265625 L 60.972656 36.253906 C 61.90625 35.398438 62.5 34.179688 62.5 32.8125 C 62.5 30.226562 60.398438 28.125 57.8125 28.125 Z M 50 0 C 22.386719 0 0 22.386719 0 50 C 0 77.613281 22.386719 100 50 100 C 77.613281 100 100 77.613281 100 50 C 100 22.386719 77.613281 0 50 0 Z M 50 90.625 C 27.601562 90.625 9.375 72.398438 9.375 50 C 9.375 27.601562 27.601562 9.375 50 9.375 C 72.398438 9.375 90.625 27.601562 90.625 50 C 90.625 72.398438 72.398438 90.625 50 90.625 Z M 50 90.625 "/>
</g>
</svg>
