<?xml version="1.0" encoding="UTF-8"?>
<svg xmlns="http://www.w3.org/2000/svg" xmlns:xlink="http://www.w3.org/1999/xlink" width="100pt" height="100pt" viewBox="0 0 100 100" version="1.1">
<g id="surface1">
<path style=" stroke:none;fill-rule:nonzero;fill:rgb(0%,0%,0%);fill-opacity:1;" d="M 50 0 C 22.382812 0 0 22.382812 0 50 C 0 77.617188 22.382812 100 50 100 C 77.617188 100 100 77.617188 100 50 C 100 22.382812 77.617188 0 50 0 Z M 50 92.1875 C 26.699219 92.1875 7.8125 73.300781 7.8125 50 C 7.8125 26.699219 26.699219 7.8125 50 7.8125 C 73.300781 7.8125 92.1875 26.699219 92.1875 50 C 92.1875 73.300781 73.300781 92.1875 50 92.1875 Z M 50 92.1875 "/>
<path style=" stroke:none;fill-rule:nonzero;fill:rgb(0%,0%,0%);fill-opacity:1;" d="M 57.746094 37.023438 L 25 69.785156 L 30.214844 75 L 62.984375 42.265625 Z M 50.128906 46.390625 L 57.832031 38.679688 L 61.328125 42.175781 L 53.625 49.882812 Z M 50.128906 46.390625 "/>
<path style=" stroke:none;fill-rule:nonzero;fill:rgb(0%,0%,0%);fill-opacity:1;" d="M 70.847656 31.78125 L 68.226562 29.160156 L 62.984375 34.402344 L 65.605469 37.023438 Z M 70.847656 31.78125 "/>
<path style=" stroke:none;fill-rule:nonzero;fill:rgb(0%,0%,0%);fill-opacity:1;" d="M 56.328125 32.300781 L 55.042969 25 L 51.394531 25.644531 L 52.6875 32.945312 Z M 56.328125 32.300781 "/>
<path style=" stroke:none;fill-rule:nonzero;fill:rgb(0%,0%,0%);fill-opacity:1;" d="M 67.703125 43.683594 L 67.0625 47.328125 L 74.359375 48.621094 L 75 44.96875 Z M 67.703125 43.683594 "/>
<path style=" stroke:none;fill-rule:nonzero;fill:rgb(0%,0%,0%);fill-opacity:1;" d="M 59.457031 54.4375 L 62.589844 61.15625 L 65.949219 59.589844 L 62.816406 52.871094 Z M 59.457031 54.4375 "/>
<path style=" stroke:none;fill-rule:nonzero;fill:rgb(0%,0%,0%);fill-opacity:1;" d="M 47.148438 37.199219 L 40.429688 34.066406 L 38.859375 37.425781 L 45.578125 40.558594 Z M 47.148438 37.199219 "/>
</g>
</svg>
